<svg xmlns="http://www.w3.org/2000/svg" width="22" height="16" stroke="none" stroke-linecap="round" stroke-linejoin="round" fill="#fff" fill-rule="nonzero"><path d="M0 0h21v15H0z" fill="#1e50a0"/><path d="M1.6553.3947H.3387v.9205L9.1834 7.5H10.5v-.9206L1.6553.3947z"/><path d="M10.5 1.3152V.3947H9.1834L.3387 6.5794V7.5h1.3166L10.5 1.3152z"/><path d="M.3387 2.7632H10.5v2.3684H.3387z"/><path d="M4.4032.3947h2.0323V7.5H4.4032z"/><g fill="#d22f27"><path d="M5.0806.3947h.6774V7.5h-.6774z"/><path d="M.3387 3.5526H10.5v.7895H.3387zM10.5 6.5794L8.4295 5.1315H7.1129L10.5 7.5v-.9198zm0-6.1847H9.1834L6.4355 2.3163v.4468h.6774L10.5.3947zM.3387 1.3152l2.0705 1.4479h1.3166L.3387.3947v.9197zm0 6.1848h1.3166l2.7479-1.9216v-.4469h-.6774L.3387 7.5z"/></g><path d="M15.565 7.5l.8807 1.7842h-1.7681L15.5583 7.5z" fill="#5c9e31"/><path d="M16.9517 9.7824c0 2.1671-.6103 3.9237-1.3629 3.9237s-1.363-1.7574-1.363-3.9237z"/><path d="M13.567 9.7569c-.0493-.0931.0397-.2604.1994-.3752s.328-.1322.3772-.0391-.0397.2604-.1994.3752-.328.1322-.3772.0391zm-.5597 3.3532c-.0985-.1862-.1134-.3822-.0336-.4396s.2235.0463.3219.2325.1135.3822.0336.4396-.2234-.0463-.3219-.2325zm-.896-.2922c-.4617-.1279-.668-1.0567-.4607-2.0751s.7499-1.7408 1.2116-1.6129c.2203.0895.3863.3036.4406.568l-.5792 2.8429c-.1504.2078-.3813.3121-.6127.2767zm5.1059-3.0999c-.1597-.1148-.2487-.2821-.1994-.3752s.2174-.0756.3772.0391.2487.2821.1994.3752-.2174.0756-.3772-.0391zm.6151 3.6247c-.0798-.0574-.0649-.2535.0336-.4396s.242-.2899.3219-.2325.0649.2534-.0336.4396-.242.2898-.3219.2325zm1.2178-.5248c.4616-.1279.6679-1.0567.4606-2.0751s-.7499-1.7408-1.2115-1.6129c-.2203.0895-.3864.3036-.4407.568l.5792 2.8429c.1505.2078.3814.3121.6127.2767z" fill="#a57939"/><path d="M16.4495 12.2448c-.044-.0001-.0863-.02-.1179-.0557l-.7665-.8625-.7665.8625c-.0673.0753-.1742.0729-.239-.0052s-.0632-.2028.0036-.2786l.8806-.9947c.0657-.074.1698-.074.2354 0l.8807.9947c.0495.056.065.1413.0391.2158s-.088.1233-.157.1233z" fill="#5c9e31"/><path d="M16.6063 10.1771c-.0678 1.9264-.626 3.1342-1.0175 3.1342s-.9494-1.2078-1.0175-3.1342h2.035m.3454-.3947h-2.7259c0 2.1671.6104 3.9237 1.363 3.9237s1.3629-1.7566 1.3629-3.9237z" fill="#000"/><path d="M17.4791 8.6906c-.065-.3192.0297-.6168.2122-.6673s.3819.1658.4469.485-.0297.6167-.2122.6672-.3819-.1658-.4469-.4849zm-4.2439.4847c-.1825-.0505-.2772-.3481-.2122-.6672s.2643-.5355.4469-.485.2772.3481.2122.6673-.2643.5354-.4469.4849z" fill="#a57939"/></svg>
