<svg xmlns="http://www.w3.org/2000/svg" width="22" height="15" stroke="none" stroke-linecap="round" stroke-linejoin="round" fill="#fff" fill-rule="evenodd"><path d="M0 5h21v5H0z"/><g fill="#c4111b"><path d="M9.9406 8.761l.796-.6096.7897.6188-.2951-.9994.7933-.6135-.9784-.0081-.2994-.998-.3095.9945-.9784-.0033.7871.6227-.3053.9959z"/><path d="M10.7917 9.5152a1.765 1.765 0 0 1-.35.0348c-1.0342 0-1.8667-.892-1.8667-2s.8325-2 1.8667-2c.1197 0 .2367.012.35.0348-.8657.1746-1.5167.9854-1.5167 1.9652s.651 1.7906 1.5167 1.9652z"/></g><path d="M0 0h21v5H0z" fill="#000"/><path d="M0 10h21v5H0z" fill="#007a3d"/><path d="M0 0l7 7.5L0 15z" fill="#c4111b"/></svg>
